<svg version="1.1" id="startse-texto-branco" xmlns="http://www.w3.org/2000/svg" x="0" y="0" viewBox="0 0 125 50" xml:space="preserve"><style>.st0{fill:#0080ed}</style><g id="Group_162" transform="translate(-186.356 -1645.335)"><g id="Group_163" transform="translate(302.699 1645.335)"><g id="Group_162-2"><circle id="Ellipse_12" class="st0" cx="-12.3" cy="17.1" r=".9"/><circle id="Ellipse_13" class="st0" cx="-10.5" cy="33" r=".9"/><circle id="Ellipse_14" class="st0" cx="-7.9" cy="17.1" r=".9"/><circle id="Ellipse_15" class="st0" cx="-7.9" cy="19.7" r=".9"/><circle id="Ellipse_16" class="st0" cx="-7.9" cy="30.3" r=".9"/><circle id="Ellipse_17" class="st0" cx="-7.9" cy="33" r=".9"/><circle id="Ellipse_18" class="st0" cx="-5.3" cy="17.1" r=".9"/><circle id="Ellipse_19" class="st0" cx="-5.3" cy="19.7" r=".9"/><circle id="Ellipse_20" class="st0" cx="-5.3" cy="22.4" r=".9"/><circle id="Ellipse_21" class="st0" cx="-5.3" cy="27.7" r=".9"/><circle id="Ellipse_22" class="st0" cx="-5.3" cy="30.3" r=".9"/><circle id="Ellipse_23" class="st0" cx="-5.3" cy="33" r=".9"/><circle id="Ellipse_24" class="st0" cx="-2.7" cy="17.1" r=".9"/><circle id="Ellipse_25" class="st0" cx="-2.7" cy="19.7" r=".9"/><circle id="Ellipse_26" class="st0" cx="-2.7" cy="22.4" r=".9"/><circle id="Ellipse_27" class="st0" cx="-2.7" cy="25" r=".9"/><circle id="Ellipse_28" class="st0" cx="-2.7" cy="27.7" r=".9"/><circle id="Ellipse_29" class="st0" cx="-2.7" cy="30.3" r=".9"/><circle id="Ellipse_30" class="st0" cx="-2.7" cy="33" r=".9"/><circle id="Ellipse_31" class="st0" cx="-.1" cy="17.1" r=".9"/><circle id="Ellipse_32" class="st0" cx="-.1" cy="19.7" r=".9"/><circle id="Ellipse_33" class="st0" cx="-.1" cy="22.4" r=".9"/><circle id="Ellipse_34" class="st0" cx="-.1" cy="25" r=".9"/><circle id="Ellipse_35" class="st0" cx="-.1" cy="27.7" r=".9"/><circle id="Ellipse_36" class="st0" cx="-.1" cy="30.3" r=".9"/><circle id="Ellipse_37" class="st0" cx="-.1" cy="33" r=".9"/><circle id="Ellipse_38" class="st0" cx="2.5" cy="19.7" r=".9"/><circle id="Ellipse_39" class="st0" cx="2.5" cy="22.4" r=".9"/><circle id="Ellipse_40" class="st0" cx="2.5" cy="25" r=".9"/><circle id="Ellipse_41" class="st0" cx="2.5" cy="27.7" r=".9"/><circle id="Ellipse_42" class="st0" cx="2.5" cy="30.3" r=".9"/><circle id="Ellipse_43" class="st0" cx="5.2" cy="22.4" r=".9"/><circle id="Ellipse_44" class="st0" cx="5.2" cy="25" r=".9"/><circle id="Ellipse_45" class="st0" cx="5.2" cy="27.7" r=".9"/><circle id="Ellipse_46" class="st0" cx="7.8" cy="25" r=".9"/></g></g><g id="Group_165" transform="translate(186.356 1645.38)"><path id="Path_41" class="st0" d="M66.8 30h-.4l-.6.1c-.5.1-1.1.1-1.6 0-.3-.1-.4-.4-.4-.9V23h3.1c.3 0 .6-.3.6-.6v-.1-1-.9-.2c0-.1 0-.1-.1-.2v-.1l-.1-.1c-.1-.1-.3-.2-.4-.2h-3.1V17v-.1-.1s0-.1-.1-.1l-.1-.1h-.1-.1-.1-.1-.1-.1-.1-.2L60.4 18c-.2.1-.3.3-.3.5V19.9h-3c-1.3-.1-2.6.4-3.6 1.2-.2.2-.4.4-.5.6v-1.1c0-.4-.3-.8-.7-.8H50c-.4 0-.7.3-.7.8V33c0 .4.3.8.7.8h2.2c.4 0 .7-.3.7-.8v-3-1.3-2.5c0-.5.1-.9.3-1.3.8-1.6 3-1.7 3.8-1.7h3V30c-.2 1.8 1.1 3.5 2.9 3.8h1.3c.3 0 .7 0 1-.1.6 0 1.2-.1 1.7-.3.3-.1.5-.4.5-.7v-1.8-.2c.1-.5-.2-.7-.6-.7z"/><path id="Path_42" class="st0" d="M18.2 23.3l-1-.2c-2-.3-3.6-.6-3.6-1.7s1.3-1.8 3.3-1.8c1.6 0 3.2.4 4.7 1.2.3.2.7.1.9-.2.3-.4.5-.8.8-1.2.1-.2.2-.4.4-.6.1-.2.2-.4.1-.6-.1-.2-.2-.4-.4-.4-2-1-4.3-1.6-6.6-1.5-1.8-.1-3.6.4-5.2 1.4-1.4.9-2.3 2.4-2.3 4.1 0 2.8 1.9 4.4 5.8 5l1.2.2c2.4.3 3.7.7 3.7 1.8s-1.4 1.8-3.4 1.8c-1.9 0-3.7-.5-5.3-1.5-.3-.2-.8-.2-1 .1-.3.3-1.3 1.8-1.4 2-.2.3 0 .7.3.9 2.2 1.3 4.8 1.9 7.4 1.9 1.9.1 3.7-.4 5.3-1.4 1.5-.9 2.4-2.5 2.4-4.2-.1-2.9-2.2-4.5-6.1-5.1z"/><path id="Path_43" class="st0" d="M77.9 23.3l-1-.2c-2-.3-3.6-.6-3.6-1.7s1.3-1.8 3.3-1.8c1.6 0 3.2.4 4.7 1.2.3.2.7.1.9-.2.3-.4.5-.8.8-1.2.1-.2.2-.4.4-.6.1-.2.2-.4.1-.6-.1-.2-.2-.4-.4-.4-2-1-4.3-1.6-6.6-1.5-1.8-.1-3.6.4-5.2 1.4-1.4.7-2.3 2.3-2.3 3.9 0 2.8 1.9 4.4 5.8 5l1.2.2c2.4.3 3.7.7 3.7 1.8s-1.4 1.8-3.4 1.8c-1.9 0-3.7-.5-5.3-1.5-.3-.2-.8-.2-1 .1-.3.3-1.3 1.8-1.4 2-.2.3 0 .7.3.9 2.2 1.3 4.8 1.9 7.3 1.9 1.9.1 3.7-.4 5.3-1.4 1.5-.9 2.4-2.5 2.4-4.2 0-2.7-2-4.3-6-4.9z"/><path id="Path_45" class="st0" d="M94.3 19.8c-.8-.2-1.6-.3-2.4-.3-3.7-.3-6.9 2.5-7.2 6.3v.8c0 4.4 2.9 7.2 7.5 7.2 1.9 0 3.8-.6 5.3-1.7.2-.1.3-.4.3-.6 0-.2-.1-.4-.3-.6-.9-.9-1.2-1.1-1.2-1.2-.2-.2-.4-.2-.6-.2-.2 0-.3.1-.5.2l-.1.1c-.9.5-1.9.7-2.9.8-2.1 0-3.6-1-3.8-2.6h9.7c.4 0 .7-.3.7-.7v-.6c.1-1.6-.4-3.2-1.2-4.5-.8-1.2-1.9-2-3.3-2.4zm1 5.2h-6.9c.5-1.5 2-2.5 3.6-2.3 1.9 0 3.1.8 3.3 2.3z"/><path id="Path_46" class="st0" d="M32.2 30h-.3l-.7.1c-.5.1-1.1.1-1.6 0-.3-.1-.4-.4-.4-.9V23h3c.4 0 .7-.3.7-.8v-.9-.9c0-.4-.3-.8-.7-.8h-2.9V17c0-.4-.3-.8-.7-.8-.1 0-.3 0-.4.1l-2.3 1.4c-.2.1-.3.4-.3.6v11.4c-.2 1.8 1.1 3.5 2.9 3.8h1.3c.3 0 .7 0 1-.1.6 0 1.2-.1 1.7-.3.3-.1.5-.4.5-.7v-1.8c-.1-.3-.4-.6-.8-.6z"/><path id="Path_47" class="st0" d="M46.7 19.7h-2.2c-.4 0-.7.3-.7.8v.1c-1-.7-2.1-1-3.3-1h-.1c-1.8-.1-3.6.6-5 1.7-1.4 1.4-2.2 3.4-2.1 5.4-.1 2 .7 3.9 2 5.3 1.4 1.2 3.1 1.8 5 1.8h.2c1.2 0 2.4-.4 3.3-1.1v.2c0 .4.3.8.7.8h2.2c.4 0 .7-.3.7-.8V20.5c.1-.5-.3-.8-.7-.8zM37.1 28l.1-.1v-.1-.2-.2-.2-.1-.6-.4h-.1.1v-.2-.2-.1-.2c.2-.7.5-1.3 1-1.7l.2-.2.1-.1c.1-.1.2-.1.2-.2.1-.1.2-.1.3-.2.2-.1.4-.2.7-.2.1 0 .2-.1.3-.1H40.8c1.2-.1 2.3.5 3 1.4v4.6c-.7.9-1.8 1.5-3 1.4-1 0-1.9-.3-2.7-1L38 29l-.1-.1-.1-.1-.1-.1-.1-.1c-.1-.2-.3-.4-.3-.6 0-.1 0-.1-.1-.2l-.1.2z"/><g id="Group_164" transform="translate(0 14.722)"><circle id="Ellipse_47" class="st0" cx="2.2" cy="16.9" r="2.2"/></g></g></g></svg>